# xmcd CD database file
#
# Track frame offsets:
#	150
#	19452
#	32805
#	71737
#	95084
#	116738
#
# Disc length: 1781 seconds
#
# Revision: 0
# Processed by: cddbd v1.4PL0 Copyright (c) Steve Scherf et al.
# Submitted via: CDex 1.50
#
DISCID=5506f306
DTITLE=Backyard Blues Connection - Demo 03
DYEAR=2003
DGENRE=Blues
TTITLE0=How Many More Years
TTITLE1=The Stumble
TTITLE2=Too Many Drivers
TTITLE3=The Sensitive Kind
TTITLE4=Going Back Home
TTITLE5=Crosscutsaw
EXTD=YEAR: 2003
EXTT0=
EXTT1=
EXTT2=
EXTT3=
EXTT4=
EXTT5=
PLAYORDER=
